<svg width="39" height="39" viewBox="0 0 39 39" fill="none" xmlns="http://www.w3.org/2000/svg">
<path d="M19.4856 3.51089C24.6884 3.51089 25.3047 3.53077 27.3594 3.62451C29.2592 3.71114 30.2909 4.02858 30.9775 4.29543C31.8871 4.64891 32.5362 5.07115 33.218 5.75297C33.8999 6.43486 34.3221 7.08397 34.6756 7.9935C34.9425 8.68011 35.2599 9.71185 35.3465 11.6117C35.4403 13.6663 35.4602 14.2826 35.4602 19.4854C35.4602 24.6883 35.4403 25.3046 35.3465 27.3593C35.2599 29.2591 34.9425 30.2908 34.6756 30.9774C34.3221 31.887 33.8999 32.5361 33.2181 33.2179C32.5362 33.8998 31.8871 34.322 30.9775 34.6755C30.2909 34.9424 29.2592 35.2598 27.3594 35.3464C25.305 35.4402 24.6888 35.46 19.4856 35.46C14.2823 35.46 13.6661 35.4402 11.6117 35.3464C9.71189 35.2598 8.68014 34.9424 7.99352 34.6755C7.08399 34.322 6.43489 33.8998 5.75306 33.2179C5.07124 32.5361 4.64892 31.887 4.29544 30.9774C4.02859 30.2908 3.71115 29.2591 3.62452 27.3593C3.53078 25.3046 3.5109 24.6883 3.5109 19.4854C3.5109 14.2826 3.53078 13.6663 3.62452 11.6117C3.71115 9.71185 4.02859 8.68011 4.29544 7.9935C4.64892 7.08397 5.07116 6.43486 5.75306 5.75304C6.43489 5.07115 7.08399 4.64891 7.99352 4.29543C8.68014 4.02858 9.71189 3.71114 11.6117 3.62451C13.6664 3.53077 14.2827 3.51089 19.4856 3.51089ZM19.4856 0C14.1936 0 13.53 0.0224308 11.4517 0.117259C9.37767 0.211855 7.96119 0.541279 6.72177 1.02292C5.44042 1.52089 4.35376 2.18716 3.27043 3.27041C2.18717 4.35375 1.52089 5.4404 1.023 6.72175C0.541281 7.96117 0.211856 9.37763 0.117259 11.4516C0.0224309 13.53 0 14.1935 0 19.4854C0 24.7774 0.0224309 25.441 0.117259 27.5193C0.211856 29.5933 0.541281 31.0098 1.023 32.2492C1.52089 33.5305 2.18717 34.6172 3.27043 35.7005C4.35376 36.7838 5.44042 37.4501 6.72177 37.9479C7.96119 38.4297 9.37767 38.7591 11.4517 38.8537C13.53 38.9485 14.1936 38.9709 19.4856 38.9709C24.7775 38.9709 25.4411 38.9485 27.5194 38.8537C29.5934 38.7591 31.0099 38.4297 32.2493 37.9479C33.5306 37.4501 34.6173 36.7838 35.7006 35.7005C36.7839 34.6172 37.4502 33.5305 37.9481 32.2492C38.4298 31.0098 38.7592 29.5933 38.8538 27.5193C38.9486 25.441 38.9711 24.7774 38.9711 19.4854C38.9711 14.1935 38.9486 13.53 38.8538 11.4516C38.7592 9.37763 38.4298 7.96117 37.9481 6.72175C37.4502 5.4404 36.7839 4.35375 35.7006 3.27041C34.6173 2.18716 33.5306 1.52089 32.2493 1.02292C31.0099 0.541279 29.5934 0.211855 27.5194 0.117259C25.4411 0.0224308 24.7775 0 19.4856 0Z" fill="white"/>
<path d="M19.4948 9.48828C13.9685 9.48828 9.48865 13.9681 9.48865 19.4943C9.48865 25.0206 13.9685 29.5004 19.4948 29.5004C25.021 29.5004 29.5008 25.0206 29.5008 19.4943C29.5008 13.9681 25.021 9.48828 19.4948 9.48828ZM19.4948 25.9895C15.9075 25.9895 12.9995 23.0815 12.9995 19.4943C12.9995 15.9071 15.9075 12.9992 19.4948 12.9992C23.0819 12.9992 25.9899 15.9071 25.9899 19.4943C25.9899 23.0815 23.0819 25.9895 19.4948 25.9895Z" fill="white"/>
<path d="M32.2335 9.08733C32.2335 10.3787 31.1866 11.4256 29.8952 11.4256C28.6039 11.4256 27.557 10.3787 27.557 9.08733C27.557 7.79593 28.6039 6.74902 29.8952 6.74902C31.1866 6.74902 32.2335 7.79593 32.2335 9.08733Z" fill="white"/>
</svg>
