<svg width="39" height="32" viewBox="0 0 39 32" fill="none" xmlns="http://www.w3.org/2000/svg">
<path fill-rule="evenodd" clip-rule="evenodd" d="M39 3.78771C37.5662 4.43081 36.0232 4.86391 34.4048 5.05946C36.057 4.05938 37.3257 2.47658 37.9224 0.590596C36.3781 1.51718 34.6635 2.18784 32.8423 2.55139C31.3825 0.981708 29.3013 0 27.0018 0C22.5834 0 19.0008 3.61709 19.0008 8.07809C19.0008 8.71069 19.0723 9.32753 19.2088 9.91945C12.5585 9.58346 6.66336 6.36666 2.71682 1.47912C2.02787 2.67213 1.63399 4.0594 1.63399 5.53983C1.63399 8.3419 3.0444 10.8145 5.19315 12.2635C3.88024 12.2215 2.64792 11.8579 1.56769 11.2529V11.3539C1.56769 15.269 4.32741 18.533 7.98537 19.2772C7.31461 19.4609 6.60746 19.5607 5.87821 19.5607C5.36214 19.5607 4.86037 19.5095 4.37161 19.415C5.38944 22.6239 8.34544 24.9601 11.8461 25.0257C9.10849 27.1912 5.65852 28.484 1.90957 28.484C1.26221 28.484 0.625258 28.4459 0 28.3698C3.54096 30.6613 7.74618 32 12.2647 32C26.981 32 35.0288 19.6906 35.0288 9.01648C35.0288 8.66606 35.0223 8.31696 35.0054 7.97179C36.5705 6.82996 37.9276 5.40727 39 3.78771Z" fill="white"/>
</svg>
