<svg width="42" height="29" viewBox="0 0 42 29" fill="none" xmlns="http://www.w3.org/2000/svg">
<path fill-rule="evenodd" clip-rule="evenodd" d="M39.7101 2.22022C40.3623 2.86322 40.8322 3.66344 41.0731 4.5412C42.4603 10.0464 42.1398 18.7411 41.1001 24.4588C40.8591 25.3365 40.3892 26.1368 39.737 26.7798C39.0848 27.4228 38.2732 27.8861 37.3829 28.1236C34.1236 29 21.0057 29 21.0057 29C21.0057 29 7.88778 29 4.62851 28.1236C3.7382 27.8861 2.92654 27.4228 2.27436 26.7798C1.62218 26.1368 1.15223 25.3365 0.911319 24.4588C-0.483974 18.9775 -0.101479 10.2775 0.884385 4.56777C1.1253 3.69 1.59524 2.88977 2.24743 2.24677C2.89961 1.60378 3.71127 1.14045 4.60157 0.902937C7.86085 0.0265503 20.9788 0 20.9788 0C20.9788 0 34.0967 0 37.3559 0.87637C38.2462 1.1139 39.0579 1.57723 39.7101 2.22022ZM27.6859 14.5L16.8036 20.7143V8.2857L27.6859 14.5Z" fill="white"/>
</svg>
